<svg width="737" height="85" viewBox="0 0 737 85" fill="none" xmlns="http://www.w3.org/2000/svg">
<rect x="32" y="9" width="41" height="41" rx="20.5" fill="#0C0C0C"/>
<mask id="mask0_46_2114" style="mask-type:alpha" maskUnits="userSpaceOnUse" x="41" y="18" width="24" height="24">
<rect x="41" y="18" width="24" height="24" fill="#D9D9D9"/>
</mask>
<g mask="url(#mask0_46_2114)">
<path d="M48.3 39C47.6667 39 47.125 38.7708 46.675 38.3125C46.225 37.8542 46 37.3083 46 36.675V27.4L44.175 23H42V21H45.525L47.175 25H61.95C62.3333 25 62.625 25.1583 62.825 25.475C63.025 25.7917 63.0333 26.1167 62.85 26.45L60 32.025C60.85 32.1583 61.5625 32.55 62.1375 33.2C62.7125 33.85 63 34.6167 63 35.5C63 36.4667 62.6625 37.2917 61.9875 37.975C61.3125 38.6583 60.4917 39 59.525 39C58.5417 39 57.7125 38.6583 57.0375 37.975C56.3625 37.2917 56.025 36.4667 56.025 35.5C56.025 35.1667 56.0667 34.8583 56.15 34.575C56.2333 34.2917 56.35 34.0167 56.5 33.75L53.225 33.45L50.225 37.95C50.0083 38.2833 49.7292 38.5417 49.3875 38.725C49.0458 38.9083 48.6833 39 48.3 39ZM57.85 31.875L60.325 27L48 27.025L49.25 30C49.3833 30.3333 49.5958 30.6125 49.8875 30.8375C50.1792 31.0625 50.5167 31.1917 50.9 31.225L57.85 31.875ZM48.325 36.975C48.3583 36.975 48.4333 36.9333 48.55 36.85L50.975 33.25C50.1583 33.1667 49.5167 32.9708 49.05 32.6625C48.5833 32.3542 48.2333 32.0333 48 31.7V36.7C48 36.7833 48.0333 36.85 48.1 36.9C48.1667 36.95 48.2417 36.975 48.325 36.975ZM59.5 37C59.9333 37 60.2917 36.8542 60.575 36.5625C60.8583 36.2708 61 35.9167 61 35.5C61 35.0667 60.8583 34.7083 60.575 34.425C60.2917 34.1417 59.9333 34 59.5 34C59.0833 34 58.7292 34.1417 58.4375 34.425C58.1458 34.7083 58 35.0667 58 35.5C58 35.9167 58.1458 36.2708 58.4375 36.5625C58.7292 36.8542 59.0833 37 59.5 37Z" fill="white"/>
</g>
<path d="M82 29.5C82 45.7924 68.7924 59 52.5 59C36.2076 59 23 45.7924 23 29.5C23 13.2076 36.2076 0 52.5 0C68.7924 0 82 13.2076 82 29.5ZM26.3874 29.5C26.3874 43.9216 38.0784 55.6126 52.5 55.6126C66.9216 55.6126 78.6126 43.9216 78.6126 29.5C78.6126 15.0784 66.9216 3.38739 52.5 3.38739C38.0784 3.38739 26.3874 15.0784 26.3874 29.5Z" fill="#0C0C0C"/>
<path d="M6.72 81.096C5.87733 81.096 5.09333 80.9573 4.368 80.68C3.65333 80.392 3.02933 79.992 2.496 79.48C1.97333 78.9573 1.56267 78.3547 1.264 77.672C0.976 76.9787 0.832 76.2213 0.832 75.4C0.832 74.5787 0.976 73.8267 1.264 73.144C1.56267 72.4507 1.97333 71.848 2.496 71.336C3.02933 70.8133 3.65333 70.4133 4.368 70.136C5.08267 69.848 5.86667 69.704 6.72 69.704C7.56267 69.704 8.34133 69.848 9.056 70.136C9.77067 70.4133 10.3893 70.808 10.912 71.32C11.4453 71.832 11.856 72.4347 12.144 73.128C12.4427 73.8213 12.592 74.5787 12.592 75.4C12.592 76.2213 12.4427 76.9787 12.144 77.672C11.856 78.3653 11.4453 78.968 10.912 79.48C10.3893 79.992 9.77067 80.392 9.056 80.68C8.34133 80.9573 7.56267 81.096 6.72 81.096ZM6.72 80.04C7.392 80.04 8.01067 79.928 8.576 79.704C9.152 79.4693 9.648 79.144 10.064 78.728C10.4907 78.3013 10.8213 77.8107 11.056 77.256C11.2907 76.6907 11.408 76.072 11.408 75.4C11.408 74.728 11.2907 74.1147 11.056 73.56C10.8213 72.9947 10.4907 72.504 10.064 72.088C9.648 71.6613 9.152 71.336 8.576 71.112C8.01067 70.8773 7.392 70.76 6.72 70.76C6.048 70.76 5.424 70.8773 4.848 71.112C4.272 71.336 3.77067 71.6613 3.344 72.088C2.928 72.504 2.59733 72.9947 2.352 73.56C2.11733 74.1147 2 74.728 2 75.4C2 76.0613 2.11733 76.6747 2.352 77.24C2.59733 77.8053 2.928 78.3013 3.344 78.728C3.77067 79.144 4.272 79.4693 4.848 79.704C5.424 79.928 6.048 80.04 6.72 80.04ZM15.0059 81V72.6H16.0939V74.888L15.9819 74.488C16.2165 73.848 16.6112 73.3627 17.1659 73.032C17.7205 72.6907 18.4085 72.52 19.2299 72.52V73.624C19.1872 73.624 19.1445 73.624 19.1019 73.624C19.0592 73.6133 19.0165 73.608 18.9739 73.608C18.0885 73.608 17.3952 73.88 16.8939 74.424C16.3925 74.9573 16.1419 75.72 16.1419 76.712V81H15.0059ZM24.5686 81.08C23.7686 81.08 23.0486 80.8987 22.4086 80.536C21.7793 80.1733 21.2833 79.672 20.9206 79.032C20.558 78.3813 20.3766 77.6347 20.3766 76.792C20.3766 75.9387 20.558 75.192 20.9206 74.552C21.2833 73.912 21.7793 73.416 22.4086 73.064C23.0486 72.7013 23.7686 72.52 24.5686 72.52C25.3046 72.52 25.9606 72.6853 26.5366 73.016C27.1233 73.3467 27.5873 73.832 27.9286 74.472C28.2806 75.1013 28.4566 75.8747 28.4566 76.792C28.4566 77.6987 28.286 78.472 27.9446 79.112C27.6033 79.752 27.1393 80.2427 26.5526 80.584C25.9766 80.9147 25.3153 81.08 24.5686 81.08ZM24.6486 80.072C25.246 80.072 25.7793 79.9387 26.2486 79.672C26.7286 79.3947 27.102 79.0107 27.3686 78.52C27.646 78.0187 27.7846 77.4427 27.7846 76.792C27.7846 76.1307 27.646 75.5547 27.3686 75.064C27.102 74.5733 26.7286 74.1947 26.2486 73.928C25.7793 73.6507 25.246 73.512 24.6486 73.512C24.062 73.512 23.534 73.6507 23.0646 73.928C22.5953 74.1947 22.222 74.5733 21.9446 75.064C21.6673 75.5547 21.5286 76.1307 21.5286 76.792C21.5286 77.4427 21.6673 78.0187 21.9446 78.52C22.222 79.0107 22.5953 79.3947 23.0646 79.672C23.534 79.9387 24.062 80.072 24.6486 80.072ZM27.8166 81V78.472L27.9286 76.776L27.7686 75.08V69.128H28.9046V81H27.8166ZM35.6364 81.08C34.7617 81.08 33.9937 80.8987 33.3324 80.536C32.671 80.1627 32.1537 79.656 31.7804 79.016C31.407 78.3653 31.2204 77.624 31.2204 76.792C31.2204 75.96 31.3964 75.224 31.7484 74.584C32.111 73.944 32.6017 73.4427 33.2204 73.08C33.8497 72.7067 34.5537 72.52 35.3324 72.52C36.1217 72.52 36.8204 72.7013 37.4284 73.064C38.047 73.416 38.5324 73.9173 38.8844 74.568C39.2364 75.208 39.4124 75.9493 39.4124 76.792C39.4124 76.8453 39.407 76.904 39.3964 76.968C39.3964 77.0213 39.3964 77.08 39.3964 77.144H32.0844V76.296H38.7884L38.3404 76.632C38.3404 76.024 38.207 75.4853 37.9404 75.016C37.6844 74.536 37.3324 74.1627 36.8844 73.896C36.4364 73.6293 35.919 73.496 35.3324 73.496C34.7564 73.496 34.239 73.6293 33.7804 73.896C33.3217 74.1627 32.9644 74.536 32.7084 75.016C32.4524 75.496 32.3244 76.0453 32.3244 76.664V76.84C32.3244 77.48 32.463 78.0453 32.7404 78.536C33.0284 79.016 33.423 79.3947 33.9244 79.672C34.4364 79.9387 35.0177 80.072 35.6684 80.072C36.1804 80.072 36.655 79.9813 37.0924 79.8C37.5404 79.6187 37.9244 79.3413 38.2444 78.968L38.8844 79.704C38.511 80.152 38.0417 80.4933 37.4764 80.728C36.9217 80.9627 36.3084 81.08 35.6364 81.08ZM41.7246 81V72.6H42.8126V74.888L42.7006 74.488C42.9353 73.848 43.33 73.3627 43.8846 73.032C44.4393 72.6907 45.1273 72.52 45.9486 72.52V73.624C45.906 73.624 45.8633 73.624 45.8206 73.624C45.778 73.6133 45.7353 73.608 45.6926 73.608C44.8073 73.608 44.114 73.88 43.6126 74.424C43.1113 74.9573 42.8606 75.72 42.8606 76.712V81H41.7246ZM56.67 81.08C55.9447 81.08 55.2887 80.9147 54.702 80.584C54.1153 80.2427 53.646 79.7573 53.294 79.128C52.9527 78.488 52.782 77.7093 52.782 76.792C52.782 75.8747 52.9527 75.1013 53.294 74.472C53.6353 73.832 54.0993 73.3467 54.686 73.016C55.2727 72.6853 55.934 72.52 56.67 72.52C57.47 72.52 58.1847 72.7013 58.814 73.064C59.454 73.416 59.9553 73.9173 60.318 74.568C60.6807 75.208 60.862 75.9493 60.862 76.792C60.862 77.6453 60.6807 78.392 60.318 79.032C59.9553 79.672 59.454 80.1733 58.814 80.536C58.1847 80.8987 57.47 81.08 56.67 81.08ZM52.334 84.104V72.6H53.422V75.128L53.31 76.808L53.47 78.504V84.104H52.334ZM56.59 80.072C57.1873 80.072 57.7207 79.9387 58.19 79.672C58.6593 79.3947 59.0327 79.0107 59.31 78.52C59.5873 78.0187 59.726 77.4427 59.726 76.792C59.726 76.1413 59.5873 75.5707 59.31 75.08C59.0327 74.5893 58.6593 74.2053 58.19 73.928C57.7207 73.6507 57.1873 73.512 56.59 73.512C55.9927 73.512 55.454 73.6507 54.974 73.928C54.5047 74.2053 54.1313 74.5893 53.854 75.08C53.5873 75.5707 53.454 76.1413 53.454 76.792C53.454 77.4427 53.5873 78.0187 53.854 78.52C54.1313 79.0107 54.5047 79.3947 54.974 79.672C55.454 79.9387 55.9927 80.072 56.59 80.072ZM63.1778 81V69.128H64.3138V81H63.1778ZM72.7386 81V79.144L72.6906 78.84V75.736C72.6906 75.0213 72.488 74.472 72.0826 74.088C71.688 73.704 71.096 73.512 70.3066 73.512C69.7626 73.512 69.2453 73.6027 68.7546 73.784C68.264 73.9653 67.848 74.2053 67.5066 74.504L66.9946 73.656C67.4213 73.2933 67.9333 73.016 68.5306 72.824C69.128 72.6213 69.7573 72.52 70.4186 72.52C71.5066 72.52 72.344 72.792 72.9306 73.336C73.528 73.8693 73.8266 74.6853 73.8266 75.784V81H72.7386ZM69.8426 81.08C69.2133 81.08 68.664 80.9787 68.1946 80.776C67.736 80.5627 67.384 80.2747 67.1386 79.912C66.8933 79.5387 66.7706 79.112 66.7706 78.632C66.7706 78.1947 66.872 77.8 67.0746 77.448C67.288 77.0853 67.6293 76.7973 68.0986 76.584C68.5786 76.36 69.2186 76.248 70.0186 76.248H72.9146V77.096H70.0506C69.24 77.096 68.6746 77.24 68.3546 77.528C68.0453 77.816 67.8906 78.1733 67.8906 78.6C67.8906 79.08 68.0773 79.464 68.4506 79.752C68.824 80.04 69.3466 80.184 70.0186 80.184C70.6586 80.184 71.208 80.04 71.6666 79.752C72.136 79.4533 72.4773 79.0267 72.6906 78.472L72.9466 79.256C72.7333 79.8107 72.36 80.2533 71.8266 80.584C71.304 80.9147 70.6426 81.08 69.8426 81.08ZM80.4001 81.08C79.5681 81.08 78.8215 80.8987 78.1601 80.536C77.5095 80.1627 76.9975 79.656 76.6241 79.016C76.2508 78.3653 76.0641 77.624 76.0641 76.792C76.0641 75.9493 76.2508 75.208 76.6241 74.568C76.9975 73.928 77.5095 73.4267 78.1601 73.064C78.8215 72.7013 79.5681 72.52 80.4001 72.52C81.1148 72.52 81.7601 72.6587 82.3361 72.936C82.9121 73.2133 83.3655 73.6293 83.6961 74.184L82.8481 74.76C82.5601 74.3333 82.2028 74.0187 81.7761 73.816C81.3495 73.6133 80.8855 73.512 80.3841 73.512C79.7868 73.512 79.2481 73.6507 78.7681 73.928C78.2881 74.1947 77.9095 74.5733 77.6321 75.064C77.3548 75.5547 77.2161 76.1307 77.2161 76.792C77.2161 77.4533 77.3548 78.0293 77.6321 78.52C77.9095 79.0107 78.2881 79.3947 78.7681 79.672C79.2481 79.9387 79.7868 80.072 80.3841 80.072C80.8855 80.072 81.3495 79.9707 81.7761 79.768C82.2028 79.5653 82.5601 79.256 82.8481 78.84L83.6961 79.416C83.3655 79.96 82.9121 80.376 82.3361 80.664C81.7601 80.9413 81.1148 81.08 80.4001 81.08ZM89.3551 81.08C88.4805 81.08 87.7125 80.8987 87.0511 80.536C86.3898 80.1627 85.8725 79.656 85.4991 79.016C85.1258 78.3653 84.9391 77.624 84.9391 76.792C84.9391 75.96 85.1151 75.224 85.4671 74.584C85.8298 73.944 86.3205 73.4427 86.9391 73.08C87.5685 72.7067 88.2725 72.52 89.0511 72.52C89.8405 72.52 90.5391 72.7013 91.1471 73.064C91.7658 73.416 92.2511 73.9173 92.6031 74.568C92.9551 75.208 93.1311 75.9493 93.1311 76.792C93.1311 76.8453 93.1258 76.904 93.1151 76.968C93.1151 77.0213 93.1151 77.08 93.1151 77.144H85.8031V76.296H92.5071L92.0591 76.632C92.0591 76.024 91.9258 75.4853 91.6591 75.016C91.4031 74.536 91.0511 74.1627 90.6031 73.896C90.1551 73.6293 89.6378 73.496 89.0511 73.496C88.4751 73.496 87.9578 73.6293 87.4991 73.896C87.0405 74.1627 86.6831 74.536 86.4271 75.016C86.1711 75.496 86.0431 76.0453 86.0431 76.664V76.84C86.0431 77.48 86.1818 78.0453 86.4591 78.536C86.7471 79.016 87.1418 79.3947 87.6431 79.672C88.1551 79.9387 88.7365 80.072 89.3871 80.072C89.8991 80.072 90.3738 79.9813 90.8111 79.8C91.2591 79.6187 91.6431 79.3413 91.9631 78.968L92.6031 79.704C92.2298 80.152 91.7605 80.4933 91.1951 80.728C90.6405 80.9627 90.0271 81.08 89.3551 81.08ZM98.7874 81.08C97.9874 81.08 97.2674 80.8987 96.6274 80.536C95.998 80.1733 95.502 79.672 95.1394 79.032C94.7767 78.3813 94.5954 77.6347 94.5954 76.792C94.5954 75.9387 94.7767 75.192 95.1394 74.552C95.502 73.912 95.998 73.416 96.6274 73.064C97.2674 72.7013 97.9874 72.52 98.7874 72.52C99.5234 72.52 100.179 72.6853 100.755 73.016C101.342 73.3467 101.806 73.832 102.147 74.472C102.499 75.1013 102.675 75.8747 102.675 76.792C102.675 77.6987 102.505 78.472 102.163 79.112C101.822 79.752 101.358 80.2427 100.771 80.584C100.195 80.9147 99.534 81.08 98.7874 81.08ZM98.8674 80.072C99.4647 80.072 99.998 79.9387 100.467 79.672C100.947 79.3947 101.321 79.0107 101.587 78.52C101.865 78.0187 102.003 77.4427 102.003 76.792C102.003 76.1307 101.865 75.5547 101.587 75.064C101.321 74.5733 100.947 74.1947 100.467 73.928C99.998 73.6507 99.4647 73.512 98.8674 73.512C98.2807 73.512 97.7527 73.6507 97.2834 73.928C96.814 74.1947 96.4407 74.5733 96.1634 75.064C95.886 75.5547 95.7474 76.1307 95.7474 76.792C95.7474 77.4427 95.886 78.0187 96.1634 78.52C96.4407 79.0107 96.814 79.3947 97.2834 79.672C97.7527 79.9387 98.2807 80.072 98.8674 80.072ZM102.035 81V78.472L102.147 76.776L101.987 75.08V69.128H103.123V81H102.035Z" fill="#0C0C0C"/>
<rect x="362" y="9" width="41" height="41" rx="20.5" fill="#0C0C0C"/>
<mask id="mask1_46_2114" style="mask-type:alpha" maskUnits="userSpaceOnUse" x="371" y="18" width="24" height="24">
<rect x="371" y="18" width="24" height="24" fill="#D9D9D9"/>
</mask>
<g mask="url(#mask1_46_2114)">
<path d="M377 37C376.167 37 375.458 36.7083 374.875 36.125C374.292 35.5417 374 34.8333 374 34H372V25C372 24.45 372.196 23.9792 372.588 23.5875C372.979 23.1958 373.45 23 374 23H388L394 29V34H392C392 34.8333 391.708 35.5417 391.125 36.125C390.542 36.7083 389.833 37 389 37C388.167 37 387.458 36.7083 386.875 36.125C386.292 35.5417 386 34.8333 386 34H380C380 34.8333 379.708 35.5417 379.125 36.125C378.542 36.7083 377.833 37 377 37ZM386 28H390L387 25H386V28ZM380 28H384V25H380V28ZM374 28H378V25H374V28ZM377 35.25C377.35 35.25 377.646 35.1292 377.888 34.8875C378.129 34.6458 378.25 34.35 378.25 34C378.25 33.65 378.129 33.3542 377.888 33.1125C377.646 32.8708 377.35 32.75 377 32.75C376.65 32.75 376.354 32.8708 376.113 33.1125C375.871 33.3542 375.75 33.65 375.75 34C375.75 34.35 375.871 34.6458 376.113 34.8875C376.354 35.1292 376.65 35.25 377 35.25ZM389 35.25C389.35 35.25 389.646 35.1292 389.888 34.8875C390.129 34.6458 390.25 34.35 390.25 34C390.25 33.65 390.129 33.3542 389.888 33.1125C389.646 32.8708 389.35 32.75 389 32.75C388.65 32.75 388.354 32.8708 388.113 33.1125C387.871 33.3542 387.75 33.65 387.75 34C387.75 34.35 387.871 34.6458 388.113 34.8875C388.354 35.1292 388.65 35.25 389 35.25ZM374 32H374.8C375.083 31.7 375.408 31.4583 375.775 31.275C376.142 31.0917 376.55 31 377 31C377.45 31 377.858 31.0917 378.225 31.275C378.592 31.4583 378.917 31.7 379.2 32H386.8C387.083 31.7 387.408 31.4583 387.775 31.275C388.142 31.0917 388.55 31 389 31C389.45 31 389.858 31.0917 390.225 31.275C390.592 31.4583 390.917 31.7 391.2 32H392V30H374V32Z" fill="white"/>
</g>
<path d="M412 29.5C412 45.7924 398.792 59 382.5 59C366.208 59 353 45.7924 353 29.5C353 13.2076 366.208 0 382.5 0C398.792 0 412 13.2076 412 29.5ZM356.387 29.5C356.387 43.9216 368.078 55.6126 382.5 55.6126C396.922 55.6126 408.613 43.9216 408.613 29.5C408.613 15.0784 396.922 3.38739 382.5 3.38739C368.078 3.38739 356.387 15.0784 356.387 29.5Z" fill="#0C0C0C"/>
<path d="M348.824 81V69.8H350.008V81H348.824ZM357.7 72.52C358.383 72.52 358.98 72.6533 359.492 72.92C360.015 73.176 360.42 73.5707 360.708 74.104C361.007 74.6373 361.156 75.3093 361.156 76.12V81H360.02V76.232C360.02 75.3467 359.796 74.68 359.348 74.232C358.911 73.7733 358.292 73.544 357.492 73.544C356.895 73.544 356.372 73.6667 355.924 73.912C355.487 74.1467 355.145 74.4933 354.9 74.952C354.665 75.4 354.548 75.944 354.548 76.584V81H353.412V72.6H354.5V74.904L354.324 74.472C354.591 73.864 355.017 73.3893 355.604 73.048C356.191 72.696 356.889 72.52 357.7 72.52ZM371.068 81.08C370.279 81.08 369.671 80.8667 369.244 80.44C368.817 80.0133 368.604 79.4107 368.604 78.632V70.744H369.74V78.568C369.74 79.0587 369.863 79.4373 370.108 79.704C370.364 79.9707 370.727 80.104 371.196 80.104C371.697 80.104 372.113 79.96 372.444 79.672L372.844 80.488C372.62 80.6907 372.348 80.84 372.028 80.936C371.719 81.032 371.399 81.08 371.068 81.08ZM367.1 73.544V72.6H372.3V73.544H367.1ZM374.912 81V72.6H376V74.888L375.888 74.488C376.123 73.848 376.517 73.3627 377.072 73.032C377.627 72.6907 378.315 72.52 379.136 72.52V73.624C379.093 73.624 379.051 73.624 379.008 73.624C378.965 73.6133 378.923 73.608 378.88 73.608C377.995 73.608 377.301 73.88 376.8 74.424C376.299 74.9573 376.048 75.72 376.048 76.712V81H374.912ZM385.848 81V79.144L385.8 78.84V75.736C385.8 75.0213 385.597 74.472 385.192 74.088C384.797 73.704 384.205 73.512 383.416 73.512C382.872 73.512 382.355 73.6027 381.864 73.784C381.373 73.9653 380.957 74.2053 380.616 74.504L380.104 73.656C380.531 73.2933 381.043 73.016 381.64 72.824C382.237 72.6213 382.867 72.52 383.528 72.52C384.616 72.52 385.453 72.792 386.04 73.336C386.637 73.8693 386.936 74.6853 386.936 75.784V81H385.848ZM382.952 81.08C382.323 81.08 381.773 80.9787 381.304 80.776C380.845 80.5627 380.493 80.2747 380.248 79.912C380.003 79.5387 379.88 79.112 379.88 78.632C379.88 78.1947 379.981 77.8 380.184 77.448C380.397 77.0853 380.739 76.7973 381.208 76.584C381.688 76.36 382.328 76.248 383.128 76.248H386.024V77.096H383.16C382.349 77.096 381.784 77.24 381.464 77.528C381.155 77.816 381 78.1733 381 78.6C381 79.08 381.187 79.464 381.56 79.752C381.933 80.04 382.456 80.184 383.128 80.184C383.768 80.184 384.317 80.04 384.776 79.752C385.245 79.4533 385.587 79.0267 385.8 78.472L386.056 79.256C385.843 79.8107 385.469 80.2533 384.936 80.584C384.413 80.9147 383.752 81.08 382.952 81.08ZM394.31 72.52C394.992 72.52 395.59 72.6533 396.102 72.92C396.624 73.176 397.03 73.5707 397.318 74.104C397.616 74.6373 397.766 75.3093 397.766 76.12V81H396.63V76.232C396.63 75.3467 396.406 74.68 395.958 74.232C395.52 73.7733 394.902 73.544 394.102 73.544C393.504 73.544 392.982 73.6667 392.534 73.912C392.096 74.1467 391.755 74.4933 391.51 74.952C391.275 75.4 391.158 75.944 391.158 76.584V81H390.022V72.6H391.11V74.904L390.934 74.472C391.2 73.864 391.627 73.3893 392.214 73.048C392.8 72.696 393.499 72.52 394.31 72.52ZM403.09 81.08C402.397 81.08 401.741 80.984 401.122 80.792C400.503 80.5893 400.018 80.3387 399.666 80.04L400.178 79.144C400.519 79.4 400.957 79.624 401.49 79.816C402.023 79.9973 402.583 80.088 403.17 80.088C403.97 80.088 404.546 79.9653 404.898 79.72C405.25 79.464 405.426 79.128 405.426 78.712C405.426 78.4027 405.325 78.1627 405.122 77.992C404.93 77.8107 404.674 77.6773 404.354 77.592C404.034 77.496 403.677 77.416 403.282 77.352C402.887 77.288 402.493 77.2133 402.098 77.128C401.714 77.0427 401.362 76.92 401.042 76.76C400.722 76.5893 400.461 76.36 400.258 76.072C400.066 75.784 399.97 75.4 399.97 74.92C399.97 74.4613 400.098 74.0507 400.354 73.688C400.61 73.3253 400.983 73.0427 401.474 72.84C401.975 72.6267 402.583 72.52 403.298 72.52C403.842 72.52 404.386 72.5947 404.93 72.744C405.474 72.8827 405.922 73.0693 406.274 73.304L405.778 74.216C405.405 73.96 405.005 73.7787 404.578 73.672C404.151 73.5547 403.725 73.496 403.298 73.496C402.541 73.496 401.981 73.6293 401.618 73.896C401.266 74.152 401.09 74.4827 401.09 74.888C401.09 75.208 401.186 75.4587 401.378 75.64C401.581 75.8213 401.842 75.9653 402.162 76.072C402.493 76.168 402.85 76.248 403.234 76.312C403.629 76.376 404.018 76.456 404.402 76.552C404.797 76.6373 405.154 76.76 405.474 76.92C405.805 77.0693 406.066 77.288 406.258 77.576C406.461 77.8533 406.562 78.2213 406.562 78.68C406.562 79.1707 406.423 79.5973 406.146 79.96C405.879 80.312 405.485 80.5893 404.962 80.792C404.45 80.984 403.826 81.08 403.09 81.08ZM408.647 81V72.6H409.783V81H408.647ZM409.223 70.744C408.988 70.744 408.791 70.664 408.631 70.504C408.471 70.344 408.391 70.152 408.391 69.928C408.391 69.704 408.471 69.5173 408.631 69.368C408.791 69.208 408.988 69.128 409.223 69.128C409.457 69.128 409.655 69.2027 409.815 69.352C409.975 69.5013 410.055 69.688 410.055 69.912C410.055 70.1467 409.975 70.344 409.815 70.504C409.665 70.664 409.468 70.744 409.223 70.744ZM415.599 81.08C414.81 81.08 414.202 80.8667 413.775 80.44C413.349 80.0133 413.135 79.4107 413.135 78.632V70.744H414.271V78.568C414.271 79.0587 414.394 79.4373 414.639 79.704C414.895 79.9707 415.258 80.104 415.727 80.104C416.229 80.104 416.645 79.96 416.975 79.672L417.375 80.488C417.151 80.6907 416.879 80.84 416.559 80.936C416.25 81.032 415.93 81.08 415.599 81.08ZM411.631 73.544V72.6H416.831V73.544H411.631Z" fill="#0C0C0C"/>
<rect x="81" y="30" width="273" height="5" fill="#0C0C0C"/>
<rect x="410" y="30" width="262" height="5" rx="2.5" fill="#0C0C0C" fill-opacity="0.14"/>
<rect x="679.5" y="9" width="41" height="41" rx="20.5" fill="#DDDDDD"/>
<mask id="mask2_46_2114" style="mask-type:alpha" maskUnits="userSpaceOnUse" x="688" y="18" width="25" height="24">
<rect x="688.5" y="18" width="24" height="24" fill="#D9D9D9"/>
</mask>
<g mask="url(#mask2_46_2114)">
<path d="M698.026 36L708.626 25.4L707.201 24L698.001 33.175L693.776 28.925L692.351 30.35L698.026 36ZM698.026 38.825L689.551 30.35L693.776 26.1L698.026 30.35L707.176 21.175L711.476 25.375L698.026 38.825Z" fill="white"/>
</g>
<path d="M729.5 29.5C729.5 45.7924 716.292 59 700 59C683.708 59 670.5 45.7924 670.5 29.5C670.5 13.2076 683.708 0 700 0C716.292 0 729.5 13.2076 729.5 29.5ZM673.887 29.5C673.887 43.9216 685.578 55.6126 700 55.6126C714.422 55.6126 726.113 43.9216 726.113 29.5C726.113 15.0784 714.422 3.38739 700 3.38739C685.578 3.38739 673.887 15.0784 673.887 29.5Z" fill="#0C0C0C" fill-opacity="0.14"/>
<path d="M667.928 81.08C667.128 81.08 666.408 80.8987 665.768 80.536C665.139 80.1733 664.643 79.672 664.28 79.032C663.917 78.3813 663.736 77.6347 663.736 76.792C663.736 75.9387 663.917 75.192 664.28 74.552C664.643 73.912 665.139 73.416 665.768 73.064C666.408 72.7013 667.128 72.52 667.928 72.52C668.664 72.52 669.32 72.6853 669.896 73.016C670.483 73.3467 670.947 73.832 671.288 74.472C671.64 75.1013 671.816 75.8747 671.816 76.792C671.816 77.6987 671.645 78.472 671.304 79.112C670.963 79.752 670.499 80.2427 669.912 80.584C669.336 80.9147 668.675 81.08 667.928 81.08ZM668.008 80.072C668.605 80.072 669.139 79.9387 669.608 79.672C670.088 79.3947 670.461 79.0107 670.728 78.52C671.005 78.0187 671.144 77.4427 671.144 76.792C671.144 76.1307 671.005 75.5547 670.728 75.064C670.461 74.5733 670.088 74.1947 669.608 73.928C669.139 73.6507 668.605 73.512 668.008 73.512C667.421 73.512 666.893 73.6507 666.424 73.928C665.955 74.1947 665.581 74.5733 665.304 75.064C665.027 75.5547 664.888 76.1307 664.888 76.792C664.888 77.4427 665.027 78.0187 665.304 78.52C665.581 79.0107 665.955 79.3947 666.424 79.672C666.893 79.9387 667.421 80.072 668.008 80.072ZM671.176 81V78.472L671.288 76.776L671.128 75.08V69.128H672.264V81H671.176ZM678.996 81.08C678.121 81.08 677.353 80.8987 676.692 80.536C676.03 80.1627 675.513 79.656 675.14 79.016C674.766 78.3653 674.58 77.624 674.58 76.792C674.58 75.96 674.756 75.224 675.108 74.584C675.47 73.944 675.961 73.4427 676.58 73.08C677.209 72.7067 677.913 72.52 678.692 72.52C679.481 72.52 680.18 72.7013 680.788 73.064C681.406 73.416 681.892 73.9173 682.244 74.568C682.596 75.208 682.772 75.9493 682.772 76.792C682.772 76.8453 682.766 76.904 682.756 76.968C682.756 77.0213 682.756 77.08 682.756 77.144H675.444V76.296H682.148L681.7 76.632C681.7 76.024 681.566 75.4853 681.3 75.016C681.044 74.536 680.692 74.1627 680.244 73.896C679.796 73.6293 679.278 73.496 678.692 73.496C678.116 73.496 677.598 73.6293 677.14 73.896C676.681 74.1627 676.324 74.536 676.068 75.016C675.812 75.496 675.684 76.0453 675.684 76.664V76.84C675.684 77.48 675.822 78.0453 676.1 78.536C676.388 79.016 676.782 79.3947 677.284 79.672C677.796 79.9387 678.377 80.072 679.028 80.072C679.54 80.072 680.014 79.9813 680.452 79.8C680.9 79.6187 681.284 79.3413 681.604 78.968L682.244 79.704C681.87 80.152 681.401 80.4933 680.836 80.728C680.281 80.9627 679.668 81.08 678.996 81.08ZM685.084 81V69.128H686.22V81H685.084ZM689.381 81V72.6H690.517V81H689.381ZM689.957 70.744C689.722 70.744 689.525 70.664 689.365 70.504C689.205 70.344 689.125 70.152 689.125 69.928C689.125 69.704 689.205 69.5173 689.365 69.368C689.525 69.208 689.722 69.128 689.957 69.128C690.192 69.128 690.389 69.2027 690.549 69.352C690.709 69.5013 690.789 69.688 690.789 69.912C690.789 70.1467 690.709 70.344 690.549 70.504C690.4 70.664 690.202 70.744 689.957 70.744ZM695.838 81L692.11 72.6H693.294L696.718 80.392H696.158L699.63 72.6H700.75L697.006 81H695.838ZM705.683 81.08C704.809 81.08 704.041 80.8987 703.379 80.536C702.718 80.1627 702.201 79.656 701.827 79.016C701.454 78.3653 701.267 77.624 701.267 76.792C701.267 75.96 701.443 75.224 701.795 74.584C702.158 73.944 702.649 73.4427 703.267 73.08C703.897 72.7067 704.601 72.52 705.379 72.52C706.169 72.52 706.867 72.7013 707.475 73.064C708.094 73.416 708.579 73.9173 708.931 74.568C709.283 75.208 709.459 75.9493 709.459 76.792C709.459 76.8453 709.454 76.904 709.443 76.968C709.443 77.0213 709.443 77.08 709.443 77.144H702.131V76.296H708.835L708.387 76.632C708.387 76.024 708.254 75.4853 707.987 75.016C707.731 74.536 707.379 74.1627 706.931 73.896C706.483 73.6293 705.966 73.496 705.379 73.496C704.803 73.496 704.286 73.6293 703.827 73.896C703.369 74.1627 703.011 74.536 702.755 75.016C702.499 75.496 702.371 76.0453 702.371 76.664V76.84C702.371 77.48 702.51 78.0453 702.787 78.536C703.075 79.016 703.47 79.3947 703.971 79.672C704.483 79.9387 705.065 80.072 705.715 80.072C706.227 80.072 706.702 79.9813 707.139 79.8C707.587 79.6187 707.971 79.3413 708.291 78.968L708.931 79.704C708.558 80.152 708.089 80.4933 707.523 80.728C706.969 80.9627 706.355 81.08 705.683 81.08ZM711.772 81V72.6H712.86V74.888L712.748 74.488C712.982 73.848 713.377 73.3627 713.932 73.032C714.486 72.6907 715.174 72.52 715.996 72.52V73.624C715.953 73.624 715.91 73.624 715.868 73.624C715.825 73.6133 715.782 73.608 715.74 73.608C714.854 73.608 714.161 73.88 713.66 74.424C713.158 74.9573 712.908 75.72 712.908 76.712V81H711.772ZM721.558 81.08C720.684 81.08 719.916 80.8987 719.254 80.536C718.593 80.1627 718.076 79.656 717.702 79.016C717.329 78.3653 717.142 77.624 717.142 76.792C717.142 75.96 717.318 75.224 717.67 74.584C718.033 73.944 718.524 73.4427 719.142 73.08C719.772 72.7067 720.476 72.52 721.254 72.52C722.044 72.52 722.742 72.7013 723.35 73.064C723.969 73.416 724.454 73.9173 724.806 74.568C725.158 75.208 725.334 75.9493 725.334 76.792C725.334 76.8453 725.329 76.904 725.318 76.968C725.318 77.0213 725.318 77.08 725.318 77.144H718.006V76.296H724.71L724.262 76.632C724.262 76.024 724.129 75.4853 723.862 75.016C723.606 74.536 723.254 74.1627 722.806 73.896C722.358 73.6293 721.841 73.496 721.254 73.496C720.678 73.496 720.161 73.6293 719.702 73.896C719.244 74.1627 718.886 74.536 718.63 75.016C718.374 75.496 718.246 76.0453 718.246 76.664V76.84C718.246 77.48 718.385 78.0453 718.662 78.536C718.95 79.016 719.345 79.3947 719.846 79.672C720.358 79.9387 720.94 80.072 721.59 80.072C722.102 80.072 722.577 79.9813 723.014 79.8C723.462 79.6187 723.846 79.3413 724.166 78.968L724.806 79.704C724.433 80.152 723.964 80.4933 723.398 80.728C722.844 80.9627 722.23 81.08 721.558 81.08ZM730.991 81.08C730.191 81.08 729.471 80.8987 728.831 80.536C728.201 80.1733 727.705 79.672 727.343 79.032C726.98 78.3813 726.799 77.6347 726.799 76.792C726.799 75.9387 726.98 75.192 727.343 74.552C727.705 73.912 728.201 73.416 728.831 73.064C729.471 72.7013 730.191 72.52 730.991 72.52C731.727 72.52 732.383 72.6853 732.959 73.016C733.545 73.3467 734.009 73.832 734.351 74.472C734.703 75.1013 734.878 75.8747 734.878 76.792C734.878 77.6987 734.708 78.472 734.367 79.112C734.025 79.752 733.561 80.2427 732.975 80.584C732.399 80.9147 731.737 81.08 730.991 81.08ZM731.071 80.072C731.668 80.072 732.201 79.9387 732.671 79.672C733.151 79.3947 733.524 79.0107 733.791 78.52C734.068 78.0187 734.207 77.4427 734.207 76.792C734.207 76.1307 734.068 75.5547 733.791 75.064C733.524 74.5733 733.151 74.1947 732.671 73.928C732.201 73.6507 731.668 73.512 731.071 73.512C730.484 73.512 729.956 73.6507 729.487 73.928C729.017 74.1947 728.644 74.5733 728.367 75.064C728.089 75.5547 727.951 76.1307 727.951 76.792C727.951 77.4427 728.089 78.0187 728.367 78.52C728.644 79.0107 729.017 79.3947 729.487 79.672C729.956 79.9387 730.484 80.072 731.071 80.072ZM734.239 81V78.472L734.351 76.776L734.191 75.08V69.128H735.327V81H734.239Z" fill="#DDDDDD"/>
</svg>
