<svg width="500" height="500" viewBox="0 0 500 500" fill="none" xmlns="http://www.w3.org/2000/svg">
<path d="M33.855 377.686H466.145" stroke="#EDF1F5" stroke-miterlimit="10"/>
<path d="M69.5479 377.686C58.2369 354.75 72.4839 337.172 56.2939 319.02C62.6329 336.692 52.8319 346.069 59.6529 377.686H69.5479Z" fill="#3CA378"/>
<path d="M62.3621 377.686C60.8331 354.885 40.9361 347.139 40.9361 329.143C35.6751 353.235 52.1771 356.812 52.0201 377.686H62.3621Z" fill="#43BF91"/>
<path d="M344.338 112.822H430.763C430.763 112.822 419.398 96.8569 410.036 103.429C400.674 110.002 401.794 84.4399 389.366 87.7269C376.938 91.0139 380.073 112.533 367.003 105.608C353.933 98.6819 344.338 112.822 344.338 112.822Z" fill="#F6F8FA"/>
<path d="M222.621 149.979H305.614C305.614 149.979 294.701 134.648 285.71 140.959C276.72 147.271 277.795 122.724 265.861 125.88C253.927 129.036 256.938 149.701 244.386 143.051C231.836 136.401 222.621 149.979 222.621 149.979Z" fill="#F6F8FA"/>
<path d="M68.7041 119.837H154.484C154.484 119.837 143.204 103.991 133.912 110.515C124.62 117.039 125.731 91.6677 113.396 94.9297C101.061 98.1917 104.173 119.551 91.2001 112.677C78.2281 105.803 68.7041 119.837 68.7041 119.837Z" fill="#F6F8FA"/>
<path d="M100.365 337.172L109.768 385.736" stroke="#353031" stroke-miterlimit="10" stroke-linecap="round" stroke-linejoin="round"/>
<path d="M80.3597 337.172L67.6357 385.083" stroke="#353031" stroke-miterlimit="10" stroke-linecap="round" stroke-linejoin="round"/>
<path d="M90.1577 313.853V291.264" stroke="#353031" stroke-miterlimit="10" stroke-linecap="round" stroke-linejoin="round"/>
<path d="M89.9551 337.19L91.5831 389.258" stroke="#353031" stroke-miterlimit="10" stroke-linecap="round" stroke-linejoin="round"/>
<path d="M114.942 342.371H65.3739C62.8449 342.371 60.7939 340.32 60.7939 337.791V336.552C60.7939 334.023 62.8449 331.972 65.3739 331.972H114.941C117.47 331.972 119.521 334.022 119.521 336.552V337.791C119.522 340.321 117.471 342.371 114.942 342.371Z" fill="#FF5B58"/>
<path d="M114.942 342.371H101.341C98.8117 342.371 96.7607 340.32 96.7607 337.791V336.552C96.7607 334.023 98.8107 331.972 101.341 331.972H114.942C117.471 331.972 119.522 334.022 119.522 336.552V337.791C119.522 340.321 117.471 342.371 114.942 342.371Z" fill="#D5004F"/>
<path d="M105.406 275.886V311.006" stroke="#353031" stroke-miterlimit="10" stroke-linecap="round" stroke-linejoin="round"/>
<path d="M107.75 311.006C107.75 312.301 106.701 313.35 105.406 313.35C104.111 313.35 103.062 312.3 103.062 311.006C103.062 309.711 104.112 308.662 105.406 308.662C106.7 308.662 107.75 309.712 107.75 311.006Z" fill="#353031"/>
<path d="M108.374 258.049H71.9421L66.2661 300.132H114.05L108.374 258.049Z" fill="#FFD970"/>
<path d="M114.051 300.129H102.437L96.7607 258.046H108.374L114.051 300.129Z" fill="#FFB12B"/>
<path d="M101.788 331.972H78.5279C74.1209 331.972 70.5479 328.399 70.5479 323.992V321.833C70.5479 317.425 74.1209 313.853 78.5279 313.853H101.787C106.195 313.853 109.767 317.426 109.767 321.833V323.992C109.768 328.399 106.195 331.972 101.788 331.972Z" fill="#43BF91"/>
<path d="M109.771 322.915C109.771 325.424 108.749 327.683 107.114 329.318C105.479 330.964 103.209 331.974 100.711 331.974H90.959C93.457 331.974 95.716 330.964 97.362 329.318C99.008 327.683 100.019 325.424 100.019 322.915C100.019 317.908 95.955 313.856 90.96 313.856H100.712C105.706 313.855 109.771 317.908 109.771 322.915Z" fill="#3CA378"/>
<path d="M299.792 165.124H293.882V377.634H299.792V165.124Z" fill="#FF5B58"/>
<path d="M296.837 171.578H443.735" stroke="#353031" stroke-miterlimit="10" stroke-linecap="round" stroke-linejoin="round"/>
<path d="M446.69 165.124H440.78V377.634H446.69V165.124Z" fill="#FF5B58"/>
<path d="M406.807 185.941H392.647C385.449 185.941 379.614 191.776 379.614 198.974V257.437H419.84V198.974C419.84 191.776 414.005 185.941 406.807 185.941Z" fill="#F89A83"/>
<path d="M428.459 209.626V223.971H371.049V209.626C371.049 197.492 380.175 187.494 391.935 186.107C392.853 185.994 393.79 185.938 394.737 185.938H404.772C406.009 185.938 407.227 186.032 408.417 186.219C419.764 187.972 428.459 197.782 428.459 209.626Z" fill="#F89A83"/>
<path d="M408.418 186.219C408.352 188.384 407.434 190.342 406.01 191.766C404.52 193.256 402.459 194.183 400.182 194.183C395.684 194.183 392.03 190.585 391.936 186.106C392.854 185.993 393.791 185.937 394.738 185.937H404.773C406.01 185.938 407.228 186.032 408.418 186.219Z" fill="#B76564"/>
<path d="M394.341 175.703C394.341 172.728 396.752 170.317 399.727 170.317C402.701 170.317 405.113 172.728 405.113 175.703C405.113 178.678 402.702 181.089 399.727 181.089V185.525" stroke="#353031" stroke-miterlimit="10" stroke-linecap="round" stroke-linejoin="round"/>
<path d="M392.606 187.415L399.727 185.525L407.737 187.429" stroke="#353031" stroke-miterlimit="10" stroke-linecap="round" stroke-linejoin="round"/>
<path d="M378.164 185.941H364.004C356.806 185.941 350.971 191.776 350.971 198.974V257.437H391.197V198.974C391.197 191.776 385.362 185.941 378.164 185.941Z" fill="#FFB6A4"/>
<path d="M399.816 209.626V223.971H342.406V209.626C342.406 197.492 351.532 187.494 363.292 186.107C364.21 185.994 365.147 185.938 366.094 185.938H376.129C377.366 185.938 378.584 186.032 379.774 186.219C391.121 187.972 399.816 197.782 399.816 209.626Z" fill="#FFB6A4"/>
<path d="M379.774 186.219C379.708 188.384 378.79 190.342 377.366 191.766C375.876 193.256 373.815 194.183 371.538 194.183C367.04 194.183 363.386 190.585 363.292 186.106C364.21 185.993 365.147 185.937 366.094 185.937H376.129C377.366 185.938 378.584 186.032 379.774 186.219Z" fill="#F89A83"/>
<path d="M365.698 175.703C365.698 172.728 368.109 170.317 371.084 170.317C374.059 170.317 376.47 172.728 376.47 175.703C376.47 178.678 374.059 181.089 371.084 181.089V185.525" stroke="#353031" stroke-miterlimit="10" stroke-linecap="round" stroke-linejoin="round"/>
<path d="M363.963 187.415L371.084 185.525L379.094 187.429" stroke="#353031" stroke-miterlimit="10" stroke-linecap="round" stroke-linejoin="round"/>
<path d="M349.521 185.941H335.361C328.163 185.941 322.328 191.776 322.328 198.974V257.437H362.554V198.974C362.554 191.776 356.719 185.941 349.521 185.941Z" fill="#FFD970"/>
<path d="M371.173 209.626V223.971H313.763V209.626C313.763 197.492 322.889 187.494 334.649 186.107C335.567 185.994 336.504 185.938 337.451 185.938H347.486C348.723 185.938 349.941 186.032 351.131 186.219C362.478 187.972 371.173 197.782 371.173 209.626Z" fill="#FFD970"/>
<path d="M351.131 186.219C351.065 188.384 350.147 190.342 348.723 191.766C347.233 193.256 345.172 194.183 342.895 194.183C338.397 194.183 334.743 190.585 334.649 186.106C335.567 185.993 336.504 185.937 337.451 185.937H347.486C348.723 185.938 349.941 186.032 351.131 186.219Z" fill="#FFB12B"/>
<path d="M337.055 175.703C337.055 172.728 339.466 170.317 342.441 170.317C345.416 170.317 347.827 172.728 347.827 175.703C347.827 178.678 345.416 181.089 342.441 181.089V185.525" stroke="#353031" stroke-miterlimit="10" stroke-linecap="round" stroke-linejoin="round"/>
<path d="M335.32 187.415L342.441 185.525L350.451 187.429" stroke="#353031" stroke-miterlimit="10" stroke-linecap="round" stroke-linejoin="round"/>
<path d="M225.127 293.572L252.405 377.634" stroke="#353031" stroke-miterlimit="10" stroke-linecap="round" stroke-linejoin="round"/>
<path d="M212.89 293.572L219.709 377.634" stroke="#353031" stroke-miterlimit="10" stroke-linecap="round" stroke-linejoin="round"/>
<path d="M201.266 293.572L194.446 377.634" stroke="#353031" stroke-miterlimit="10" stroke-linecap="round" stroke-linejoin="round"/>
<path d="M189.642 293.572L162.364 377.634" stroke="#353031" stroke-miterlimit="10" stroke-linecap="round" stroke-linejoin="round"/>
<path d="M247.187 225.418H209.207C209.11 225.418 209.016 225.43 208.919 225.433C208.822 225.43 208.728 225.418 208.631 225.418C204.078 225.418 200.046 228.356 198.651 232.69L198.099 234.405C192.95 250.405 178.062 261.253 161.254 261.253C154.764 261.253 149.504 266.514 149.504 273.003V293.381C149.504 299.871 154.765 305.132 161.254 305.132H196.132C208.825 305.132 219.115 294.842 219.115 282.149V278.771H247.187C252.84 278.771 257.422 274.189 257.422 268.536V235.653C257.422 230.001 252.84 225.418 247.187 225.418Z" fill="#FFB6A4"/>
<path d="M218.013 305.133H167.178C161.554 305.133 156.995 300.574 156.995 294.95V292.195C156.995 286.571 161.554 282.012 167.178 282.012H218.013C223.637 282.012 228.196 286.571 228.196 292.195V294.95C228.197 300.573 223.638 305.133 218.013 305.133Z" fill="#353031"/>
<path d="M246.938 225.418C242.385 225.418 238.353 228.356 236.958 232.69L233.783 242.556C230.197 253.699 219.829 261.253 208.123 261.253C196.263 261.253 186.003 269.51 183.468 281.096L182.922 283.591C181.048 292.153 176.216 299.78 169.275 305.132H236.628C248.112 305.132 257.422 295.822 257.422 284.338V235.902C257.422 230.112 252.728 225.418 246.938 225.418Z" fill="#F89A83"/>
<path d="M257.422 270.047V284.34C257.422 295.824 248.114 305.132 236.63 305.132H169.276C174.186 301.347 178.032 296.431 180.535 290.839H236.631C248.114 290.839 257.422 281.531 257.422 270.047Z" fill="#F78A6F"/>
<path d="M173.42 331.326H241.325" stroke="#353031" stroke-miterlimit="10" stroke-linecap="round" stroke-linejoin="round"/>
<path d="M162.64 189.122V224.243" stroke="#353031" stroke-miterlimit="10" stroke-linecap="round" stroke-linejoin="round"/>
<path d="M164.983 224.243C164.983 225.538 163.933 226.587 162.639 226.587C161.344 226.587 160.295 225.537 160.295 224.243C160.295 222.949 161.344 221.899 162.639 221.899C163.933 221.898 164.983 222.948 164.983 224.243Z" fill="#353031"/>
<path d="M135.43 377.634V167.142" stroke="#353031" stroke-miterlimit="10" stroke-linecap="round" stroke-linejoin="round"/>
<path d="M174.155 154.67H96.7041V203.231H174.155V154.67Z" fill="#58B9FF"/>
<path d="M174.156 154.67H153.454V203.231H174.156V154.67Z" fill="#49ABFF"/>
<path d="M95.0962 377.634H175.764" stroke="#353031" stroke-miterlimit="10" stroke-linecap="round" stroke-linejoin="round"/>
<path d="M407.819 334.143V377.634" stroke="#353031" stroke-miterlimit="10" stroke-linecap="round" stroke-linejoin="round"/>
<path d="M371.111 334.143V377.634" stroke="#353031" stroke-miterlimit="10" stroke-linecap="round" stroke-linejoin="round"/>
<path d="M339.585 334.143V377.634" stroke="#353031" stroke-miterlimit="10" stroke-linecap="round" stroke-linejoin="round"/>
<path d="M302.877 334.143V377.634" stroke="#353031" stroke-miterlimit="10" stroke-linecap="round" stroke-linejoin="round"/>
<path d="M417.131 326.961H281.512V335.69H417.131V326.961Z" fill="#695D61"/>
<path d="M417.131 326.961H359.658V335.69H417.131V326.961Z" fill="#353031"/>
<path d="M371.378 308.236L341.058 296.51C340.247 284.433 345.394 272.378 352.291 265.365C353.732 263.9 355.859 263.342 357.843 263.88L373.496 268.124C375.519 268.672 377.093 270.281 377.567 272.322C381.106 287.566 371.378 308.236 371.378 308.236Z" fill="#43BF91"/>
<path d="M356.493 267.104L372.875 271.546" stroke="#008C56" stroke-width="3" stroke-miterlimit="10" stroke-linecap="round" stroke-linejoin="round"/>
<path d="M405.725 282.011H323.757V326.962H405.725V282.011Z" fill="#D27400"/>
<path d="M294.156 282.011L275.877 257.693H314.478L332.757 282.011H294.156Z" fill="#F09D45"/>
<path d="M300.627 287.59C300.627 287.59 297.171 273.718 304.317 271.634C311.464 269.55 312.846 278.075 323.618 269.853C334.389 261.631 343.976 268.991 347.311 274.272C350.646 279.554 351.896 287.59 351.896 287.59H300.627Z" fill="#D5004F"/>
<path d="M366.841 282.011H293.882V326.962H366.841V282.011Z" fill="#F09D45"/>
<path d="M353.783 298.771H306.094V310.201H353.783V298.771Z" fill="#ED8846"/>
<path d="M367.124 282.011L393.786 266.531H432.387L405.725 282.011H367.124Z" fill="#D27400"/>
<path d="M405.725 282.011H375.47" stroke="#A34700" stroke-miterlimit="10"/>
<path d="M243.317 322.941L271.116 310.184H235.586L207.787 322.941H243.317Z" fill="#D27400"/>
<path d="M312.46 322.941H230.492V382.685H312.46V322.941Z" fill="#D27400"/>
<path d="M289.755 322.941H207.787V382.685H289.755V322.941Z" fill="#F09D45"/>
<path d="M289.755 322.941L271.476 298.623H294.184L312.463 322.941H289.755Z" fill="#F09D45"/>
<path d="M294.184 298.623L312.46 322.941V382.686" stroke="#D27426" stroke-miterlimit="10"/>
<path d="M271.883 335.835L221.101 337.571L223.101 366.808L268.746 369.09L271.883 335.835Z" fill="white"/>
<path d="M271.703 358.807L254.568 367.584L256.5 371.356L273.635 362.578L271.703 358.807Z" fill="#E3802B"/>
<path d="M274.963 344.04L261.628 330.153L258.572 333.088L271.906 346.975L274.963 344.04Z" fill="#E3802B"/>
<path d="M219.675 346.484L235.387 335.357L232.938 331.899L217.226 343.025L219.675 346.484Z" fill="#E3802B"/>
<path d="M218.008 360.799L233.184 372.65L235.792 369.309L220.617 357.459L218.008 360.799Z" fill="#E3802B"/>
<path d="M182.591 395.477C183.448 398.753 181.726 402.147 178.577 403.39C170.811 406.456 155.871 410.806 144.181 404.876C132.491 398.946 127.177 384.321 125.064 376.243C124.207 372.967 125.929 369.573 129.078 368.33C136.844 365.264 151.784 360.914 163.474 366.844C175.164 372.774 180.478 387.399 182.591 395.477Z" fill="#D5004F"/>
<path d="M178.572 403.389C170.817 406.456 155.87 410.802 144.186 404.875C132.492 398.943 127.18 384.32 125.064 376.246C124.205 372.971 125.93 369.569 129.08 368.329C129.909 367.999 130.83 367.664 131.822 367.314C134.353 375.625 139.704 387.836 150.143 393.131C160.571 398.421 173.585 395.527 181.786 392.66C182.1 393.672 182.364 394.608 182.587 395.472C183.448 398.746 181.722 402.148 178.572 403.389Z" fill="#AF0044"/>
<mask id="mask0_64_13393" style="mask-type:luminance" maskUnits="userSpaceOnUse" x="124" y="363" width="59" height="45">
<path d="M182.591 395.477C183.448 398.753 181.726 402.147 178.577 403.39C170.811 406.456 155.871 410.806 144.181 404.876C132.491 398.946 127.177 384.321 125.064 376.243C124.207 372.967 125.929 369.573 129.078 368.33C136.844 365.264 151.784 360.914 163.474 366.844C175.164 372.774 180.478 387.399 182.591 395.477Z" fill="white"/>
</mask>
<g mask="url(#mask0_64_13393)">
<path d="M154.073 359.181C122.379 371.317 131.996 401.062 131.996 401.062" stroke="#FFB6A4" stroke-width="3" stroke-miterlimit="10"/>
</g>
<mask id="mask1_64_13393" style="mask-type:luminance" maskUnits="userSpaceOnUse" x="124" y="363" width="59" height="45">
<path d="M182.591 395.477C183.448 398.753 181.726 402.147 178.577 403.39C170.811 406.456 155.871 410.806 144.181 404.876C132.491 398.946 127.177 384.321 125.064 376.243C124.207 372.967 125.929 369.573 129.078 368.33C136.844 365.264 151.784 360.914 163.474 366.844C175.164 372.774 180.478 387.399 182.591 395.477Z" fill="white"/>
</mask>
<g mask="url(#mask1_64_13393)">
<path d="M152.696 417.146C186.762 398.034 177.414 365.63 177.414 365.63" stroke="#FFB6A4" stroke-width="3" stroke-miterlimit="10"/>
</g>
<path d="M147.065 368.173C162.881 368.009 171.17 380.401 171.17 380.401" stroke="white" stroke-miterlimit="10"/>
<path d="M150.513 365.761L150.072 371.063" stroke="white" stroke-miterlimit="10"/>
<path d="M155.634 366.303L154.199 371.792" stroke="white" stroke-miterlimit="10"/>
<path d="M162.3 368.014L159.241 374.044" stroke="white" stroke-miterlimit="10"/>
<path d="M167.9 372.268L163.281 377.7" stroke="white" stroke-miterlimit="10"/>
<path d="M171.846 376.648L166.237 380.613" stroke="white" stroke-miterlimit="10"/>
<path d="M421.732 125.184H383.399C377.779 125.184 373.223 129.74 373.223 135.36V138.113C373.223 143.733 377.779 148.289 383.399 148.289H421.732C427.352 148.289 431.908 143.733 431.908 138.113V135.36C431.909 129.74 427.352 125.184 421.732 125.184Z" fill="#E6ECF1"/>
<path d="M367.046 136.737C367.046 130.091 372.453 124.684 379.099 124.684H414.679C421.325 124.684 426.732 130.091 426.732 136.737C426.732 143.383 421.325 148.79 414.679 148.79H376.348L367.046 157.661V136.737Z" fill="#E6ECF1"/>
<path d="M414.679 125.184C421.059 125.184 426.232 130.356 426.232 136.737C426.232 143.118 421.06 148.29 414.679 148.29H376.148L367.546 156.493V136.737C367.546 130.357 372.718 125.184 379.099 125.184H414.679ZM414.679 124.184H379.099C372.177 124.184 366.546 129.815 366.546 136.737V156.493V158.828L368.236 157.216L376.548 149.289H414.679C421.601 149.289 427.232 143.658 427.232 136.736C427.232 129.815 421.601 124.184 414.679 124.184Z" fill="white"/>
<path d="M382.869 141.625V143.137H380.949V141.694C379.588 141.612 378.267 141.244 377.45 140.741L378.485 138.399C379.384 138.93 380.582 139.271 381.63 139.271C382.542 139.271 382.869 139.08 382.869 138.753C382.869 137.555 377.6 138.522 377.6 134.968C377.6 133.429 378.716 132.136 380.949 131.823V130.339H382.869V131.796C383.877 131.891 384.857 132.15 385.633 132.586L384.666 134.914C383.727 134.437 382.842 134.206 382.011 134.206C381.071 134.206 380.772 134.479 380.772 134.805C380.772 135.949 386.041 134.996 386.041 138.508C386.041 139.977 384.979 141.257 382.869 141.625Z" fill="white"/>
<path d="M397.219 141.625V143.137H395.299V141.694C393.937 141.612 392.617 141.244 391.799 140.741L392.834 138.399C393.733 138.93 394.931 139.271 395.979 139.271C396.891 139.271 397.218 139.08 397.218 138.753C397.218 137.555 391.949 138.522 391.949 134.968C391.949 133.429 393.065 132.136 395.298 131.823V130.339H397.218V131.796C398.226 131.891 399.206 132.15 399.982 132.586L399.015 134.914C398.076 134.437 397.191 134.206 396.36 134.206C395.42 134.206 395.121 134.479 395.121 134.805C395.121 135.949 400.39 134.996 400.39 138.508C400.391 139.977 399.329 141.257 397.219 141.625Z" fill="#D8E0E9"/>
<path d="M411.569 141.625V143.137H409.649V141.694C408.287 141.612 406.967 141.244 406.149 140.741L407.184 138.399C408.083 138.93 409.281 139.271 410.329 139.271C411.241 139.271 411.568 139.08 411.568 138.753C411.568 137.555 406.299 138.522 406.299 134.968C406.299 133.429 407.415 132.136 409.648 131.823V130.339H411.568V131.796C412.576 131.891 413.556 132.15 414.332 132.586L413.365 134.914C412.426 134.437 411.541 134.206 410.71 134.206C409.77 134.206 409.471 134.479 409.471 134.805C409.471 135.949 414.74 134.996 414.74 138.508C414.742 139.977 413.68 141.257 411.569 141.625Z" fill="#D8E0E9"/>
<path d="M263.33 185.525H224.997C219.377 185.525 214.821 190.081 214.821 195.701V198.454C214.821 204.074 219.377 208.63 224.997 208.63H263.33C268.95 208.63 273.507 204.074 273.507 198.454V195.701C273.507 190.081 268.951 185.525 263.33 185.525Z" fill="#E6ECF1"/>
<path d="M208.644 197.078C208.644 190.432 214.051 185.025 220.697 185.025H256.278C262.923 185.025 268.331 190.432 268.331 197.078C268.331 203.724 262.924 209.131 256.278 209.131H217.946L208.644 218.002V197.078Z" fill="#E6ECF1"/>
<path d="M256.278 185.525C262.658 185.525 267.831 190.697 267.831 197.078C267.831 203.459 262.658 208.631 256.278 208.631H217.747L209.145 216.834V197.078C209.145 190.697 214.317 185.525 220.698 185.525H256.278ZM256.278 184.525H220.698C213.776 184.525 208.145 190.156 208.145 197.078V216.834V219.169L209.835 217.557L218.147 209.63H256.278C263.2 209.63 268.831 203.999 268.831 197.077C268.831 190.156 263.199 184.525 256.278 184.525Z" fill="white"/>
<path d="M224.467 201.966V203.478H222.547V202.035C221.186 201.953 219.865 201.586 219.048 201.082L220.083 198.741C220.982 199.272 222.18 199.612 223.228 199.612C224.14 199.612 224.467 199.421 224.467 199.094C224.467 197.896 219.198 198.863 219.198 195.309C219.198 193.77 220.314 192.477 222.547 192.164V190.68H224.467V192.137C225.475 192.232 226.455 192.491 227.231 192.927L226.264 195.255C225.325 194.778 224.44 194.547 223.609 194.547C222.669 194.547 222.37 194.82 222.37 195.146C222.37 196.289 227.639 195.337 227.639 198.849C227.639 200.318 226.577 201.598 224.467 201.966Z" fill="white"/>
<path d="M238.817 201.966V203.478H236.897V202.035C235.536 201.953 234.215 201.586 233.398 201.082L234.433 198.741C235.332 199.272 236.53 199.612 237.578 199.612C238.49 199.612 238.817 199.421 238.817 199.094C238.817 197.896 233.548 198.863 233.548 195.309C233.548 193.77 234.664 192.477 236.897 192.164V190.68H238.817V192.137C239.825 192.232 240.805 192.491 241.581 192.927L240.614 195.255C239.675 194.778 238.79 194.547 237.959 194.547C237.02 194.547 236.72 194.82 236.72 195.146C236.72 196.289 241.989 195.337 241.989 198.849C241.99 200.318 240.928 201.598 238.817 201.966Z" fill="white"/>
<path d="M253.167 201.966V203.478H251.247V202.035C249.886 201.953 248.565 201.586 247.748 201.082L248.783 198.741C249.682 199.272 250.88 199.612 251.928 199.612C252.84 199.612 253.167 199.421 253.167 199.094C253.167 197.896 247.898 198.863 247.898 195.309C247.898 193.77 249.014 192.477 251.247 192.164V190.68H253.167V192.137C254.175 192.232 255.155 192.491 255.931 192.927L254.964 195.255C254.025 194.778 253.14 194.547 252.309 194.547C251.369 194.547 251.07 194.82 251.07 195.146C251.07 196.289 256.339 195.337 256.339 198.849C256.34 200.318 255.278 201.598 253.167 201.966Z" fill="white"/>
<path d="M182.299 114.683H143.966C138.346 114.683 133.79 119.239 133.79 124.859V127.612C133.79 133.232 138.346 137.788 143.966 137.788H182.299C187.919 137.788 192.475 133.232 192.475 127.612V124.859C192.476 119.239 187.92 114.683 182.299 114.683Z" fill="#E6ECF1"/>
<path d="M127.613 126.236C127.613 119.59 133.02 114.183 139.666 114.183H175.246C181.892 114.183 187.299 119.59 187.299 126.236C187.299 132.882 181.892 138.289 175.246 138.289H136.915L127.612 147.16L127.613 126.236Z" fill="#E6ECF1"/>
<path d="M175.246 114.683C181.627 114.683 186.799 119.855 186.799 126.236C186.799 132.616 181.626 137.789 175.246 137.789H136.715L128.113 145.992V126.236C128.113 119.855 133.286 114.683 139.666 114.683H175.246ZM175.246 113.683H139.666C132.744 113.683 127.113 119.314 127.113 126.236V145.992V148.327L128.803 146.715L137.115 138.788H175.246C182.168 138.788 187.799 133.157 187.799 126.235C187.799 119.314 182.168 113.683 175.246 113.683Z" fill="white"/>
<path d="M143.436 131.124V132.636H141.516V131.193C140.155 131.111 138.834 130.743 138.017 130.24L139.052 127.899C139.951 128.43 141.149 128.77 142.197 128.77C143.109 128.77 143.436 128.579 143.436 128.252C143.436 127.054 138.167 128.021 138.167 124.467C138.167 122.928 139.283 121.635 141.516 121.322V119.838H143.436V121.295C144.444 121.39 145.424 121.649 146.2 122.085L145.233 124.413C144.294 123.936 143.409 123.705 142.578 123.705C141.639 123.705 141.339 123.978 141.339 124.304C141.339 125.448 146.608 124.495 146.608 128.007C146.608 129.476 145.546 130.756 143.436 131.124Z" fill="white"/>
<path d="M157.786 131.124V132.636H155.866V131.193C154.505 131.111 153.184 130.743 152.367 130.24L153.402 127.899C154.301 128.43 155.499 128.77 156.547 128.77C157.459 128.77 157.786 128.579 157.786 128.252C157.786 127.054 152.517 128.021 152.517 124.467C152.517 122.928 153.633 121.635 155.866 121.322V119.838H157.786V121.295C158.794 121.39 159.774 121.649 160.55 122.085L159.583 124.413C158.644 123.936 157.759 123.705 156.928 123.705C155.988 123.705 155.689 123.978 155.689 124.304C155.689 125.448 160.958 124.495 160.958 128.007C160.959 129.476 159.896 130.756 157.786 131.124Z" fill="white"/>
<path d="M172.136 131.124V132.636H170.216V131.193C168.855 131.111 167.534 130.743 166.717 130.24L167.752 127.899C168.651 128.43 169.849 128.77 170.897 128.77C171.809 128.77 172.136 128.579 172.136 128.252C172.136 127.054 166.867 128.021 166.867 124.467C166.867 122.928 167.983 121.635 170.216 121.322V119.838H172.136V121.295C173.144 121.39 174.124 121.649 174.9 122.085L173.933 124.413C172.994 123.936 172.109 123.705 171.278 123.705C170.338 123.705 170.039 123.978 170.039 124.304C170.039 125.448 175.308 124.495 175.308 128.007C175.309 129.476 174.247 130.756 172.136 131.124Z" fill="#D8E0E9"/>
<path d="M141.526 216.834H103.193C97.5726 216.834 93.0166 221.39 93.0166 227.01V229.763C93.0166 235.383 97.5726 239.939 103.193 239.939H141.526C147.146 239.939 151.703 235.383 151.703 229.763V227.01C151.703 221.39 147.147 216.834 141.526 216.834Z" fill="#E6ECF1"/>
<path d="M86.8398 228.387C86.8398 221.741 92.2468 216.334 98.8928 216.334H134.474C141.12 216.334 146.527 221.741 146.527 228.387C146.527 235.033 141.12 240.44 134.474 240.44H96.1428L86.8409 249.31V228.387H86.8398Z" fill="#E6ECF1"/>
<path d="M134.474 216.834C140.855 216.834 146.027 222.006 146.027 228.387C146.027 234.768 140.855 239.94 134.474 239.94H95.9428L87.3408 248.143V228.387C87.3408 222.007 92.5128 216.834 98.8938 216.834H134.474ZM134.474 215.834H98.8938C91.9718 215.834 86.3408 221.465 86.3408 228.387V248.143V250.478L88.0308 248.866L96.3438 240.939H134.475C141.397 240.939 147.028 235.308 147.028 228.386C147.027 221.465 141.395 215.834 134.474 215.834Z" fill="white"/>
<path d="M102.663 233.274V234.786H100.743V233.343C99.3816 233.261 98.0607 232.893 97.2437 232.39L98.2786 230.048C99.1776 230.579 100.376 230.919 101.424 230.919C102.336 230.919 102.663 230.728 102.663 230.401C102.663 229.203 97.3936 230.17 97.3936 226.616C97.3936 225.077 98.5096 223.784 100.743 223.471V221.987H102.663V223.444C103.671 223.539 104.651 223.798 105.427 224.234L104.46 226.562C103.521 226.085 102.636 225.854 101.805 225.854C100.865 225.854 100.566 226.127 100.566 226.453C100.566 227.597 105.835 226.644 105.835 230.156C105.836 231.627 104.773 232.907 102.663 233.274Z" fill="white"/>
<path d="M117.013 233.274V234.786H115.093V233.343C113.731 233.261 112.411 232.893 111.594 232.39L112.629 230.048C113.528 230.579 114.726 230.919 115.774 230.919C116.686 230.919 117.013 230.728 117.013 230.401C117.013 229.203 111.744 230.17 111.744 226.616C111.744 225.077 112.86 223.784 115.093 223.471V221.987H117.013V223.444C118.021 223.539 119.001 223.798 119.777 224.234L118.81 226.562C117.871 226.085 116.986 225.854 116.155 225.854C115.216 225.854 114.916 226.127 114.916 226.453C114.916 227.597 120.185 226.644 120.185 230.156C120.186 231.627 119.124 232.907 117.013 233.274Z" fill="white"/>
<path d="M131.364 233.274V234.786H129.444V233.343C128.082 233.261 126.762 232.893 125.944 232.39L126.979 230.048C127.878 230.579 129.076 230.919 130.124 230.919C131.036 230.919 131.363 230.728 131.363 230.401C131.363 229.203 126.094 230.17 126.094 226.616C126.094 225.077 127.21 223.784 129.443 223.471V221.987H131.363V223.444C132.371 223.539 133.351 223.798 134.127 224.234L133.16 226.562C132.221 226.085 131.336 225.854 130.505 225.854C129.565 225.854 129.266 226.127 129.266 226.453C129.266 227.597 134.535 226.644 134.535 230.156C134.536 231.627 133.474 232.907 131.364 233.274Z" fill="#D8E0E9"/>
<path d="M200.877 326.717H162.543C156.923 326.717 152.367 331.273 152.367 336.893V339.646C152.367 345.266 156.923 349.822 162.543 349.822H200.877C206.497 349.822 211.053 345.266 211.053 339.646V336.893C211.053 331.273 206.497 326.717 200.877 326.717Z" fill="#E6ECF1"/>
<path d="M146.191 338.27C146.191 331.624 151.598 326.217 158.244 326.217H193.825C200.471 326.217 205.878 331.624 205.878 338.27C205.878 344.916 200.471 350.323 193.825 350.323H155.494L146.191 359.194V338.27Z" fill="#E6ECF1"/>
<path d="M193.824 326.717C200.205 326.717 205.377 331.89 205.377 338.27C205.377 344.65 200.205 349.823 193.824 349.823H155.293L146.691 358.026V338.27C146.691 331.89 151.863 326.717 158.244 326.717H193.824ZM193.824 325.717H158.244C151.322 325.717 145.691 331.348 145.691 338.27V358.026V360.361L147.381 358.749L155.694 350.822H193.825C200.747 350.822 206.378 345.191 206.378 338.269C206.377 331.348 200.746 325.717 193.824 325.717Z" fill="white"/>
<path d="M162.014 343.158V344.67H160.094V343.226C158.733 343.144 157.412 342.777 156.595 342.273L157.63 339.932C158.529 340.463 159.727 340.803 160.775 340.803C161.687 340.803 162.014 340.612 162.014 340.285C162.014 339.087 156.745 340.054 156.745 336.5C156.745 334.961 157.861 333.668 160.094 333.355V331.871H162.014V333.328C163.022 333.423 164.002 333.682 164.778 334.118L163.811 336.446C162.872 335.969 161.987 335.737 161.156 335.737C160.216 335.737 159.917 336.01 159.917 336.336C159.917 337.48 165.186 336.527 165.186 340.039C165.186 341.51 164.124 342.79 162.014 343.158Z" fill="white"/>
<path d="M176.364 343.158V344.67H174.444V343.226C173.083 343.144 171.762 342.777 170.944 342.273L171.979 339.932C172.878 340.463 174.076 340.803 175.124 340.803C176.036 340.803 176.363 340.612 176.363 340.285C176.363 339.087 171.094 340.054 171.094 336.5C171.094 334.961 172.211 333.668 174.443 333.355V331.871H176.363V333.328C177.371 333.423 178.351 333.682 179.127 334.118L178.16 336.446C177.221 335.969 176.336 335.737 175.505 335.737C174.565 335.737 174.266 336.01 174.266 336.336C174.266 337.48 179.535 336.527 179.535 340.039C179.536 341.51 178.474 342.79 176.364 343.158Z" fill="#D8E0E9"/>
<path d="M190.714 343.158V344.67H188.794V343.226C187.433 343.144 186.112 342.777 185.295 342.273L186.33 339.932C187.228 340.463 188.427 340.803 189.475 340.803C190.387 340.803 190.714 340.612 190.714 340.285C190.714 339.087 185.445 340.054 185.445 336.5C185.445 334.961 186.562 333.668 188.794 333.355V331.871H190.714V333.328C191.722 333.423 192.702 333.682 193.478 334.118L192.511 336.446C191.572 335.969 190.687 335.737 189.856 335.737C188.916 335.737 188.617 336.01 188.617 336.336C188.617 337.48 193.886 336.527 193.886 340.039C193.886 341.51 192.824 342.79 190.714 343.158Z" fill="#D8E0E9"/>
<path d="M411.185 378.25C415.438 365.999 428.46 360.118 428.46 360.118L417.612 378.25H411.185Z" fill="#43BF91"/>
<path d="M417.612 378.25L413.762 351.544C413.762 351.544 407.375 369.674 411.185 378.25H417.612Z" fill="#43BF91"/>
<path d="M413.792 378.25L402.682 358.206C402.682 358.206 399.58 371.401 407.041 378.25H413.792Z" fill="#43BF91"/>
<path d="M161.524 412.566C165.777 400.315 178.799 394.434 178.799 394.434L167.951 412.566H161.524Z" fill="#43BF91"/>
<path d="M167.951 412.566L164.101 385.86C164.101 385.86 157.714 403.99 161.524 412.566H167.951Z" fill="#43BF91"/>
<path d="M164.132 412.566L153.022 392.522C153.022 392.522 149.92 405.717 157.381 412.566H164.132Z" fill="#43BF91"/>
<path d="M306.094 387.495C307.623 364.694 327.52 356.948 327.52 338.953C332.781 363.044 316.279 366.622 316.436 387.495H306.094Z" fill="#43BF91"/>
</svg>
